<?xml version="1.0" encoding="UTF-8" ?>
<!DOCTYPE svg PUBLIC "-//W3C//DTD SVG 1.1//EN" "http://www.w3.org/Graphics/SVG/1.1/DTD/svg11.dtd">
<svg width="155pt" height="165pt" viewBox="0 0 155 165" version="1.1" xmlns="http://www.w3.org/2000/svg">
<path fill="#000000" d=" M 73.34 4.45 C 75.42 3.18 77.40 1.08 79.90 0.92 C 86.37 3.66 89.76 10.34 92.69 16.32 C 95.98 21.20 97.62 27.10 97.01 32.99 C 97.51 39.05 96.30 45.12 93.69 50.61 C 90.95 53.43 88.97 56.89 86.00 59.50 C 85.99 62.77 85.99 66.05 86.09 69.32 C 87.62 70.32 88.97 71.56 90.42 72.68 C 93.09 74.22 96.21 74.68 98.98 76.02 C 101.56 77.53 104.67 76.64 107.40 77.62 C 110.73 78.53 114.25 77.50 117.58 78.38 C 120.48 79.34 123.57 78.97 126.57 79.01 C 128.25 77.25 129.97 75.54 131.65 73.77 C 132.65 75.40 133.71 76.99 134.75 78.60 C 135.35 81.18 135.29 83.96 136.64 86.32 C 137.97 89.45 140.55 92.32 140.02 95.95 C 139.25 103.35 142.71 110.38 142.00 117.78 C 144.10 119.00 146.29 120.25 147.66 122.33 C 149.96 129.16 151.29 136.25 152.79 143.29 C 153.06 148.78 154.95 154.16 153.72 159.68 C 148.12 160.51 142.06 160.67 136.70 158.68 C 136.72 155.07 138.26 151.67 138.04 148.05 C 137.98 142.96 138.86 137.01 134.87 133.07 C 130.59 133.32 125.84 132.35 123.00 128.89 C 122.71 135.76 123.13 142.63 124.84 149.31 C 125.70 152.09 124.37 154.67 122.95 156.98 C 118.73 157.23 114.50 157.04 110.27 156.99 C 109.52 156.15 108.78 155.30 108.07 154.43 C 107.59 152.54 108.85 150.78 108.94 148.92 C 109.08 144.61 109.00 140.29 109.00 135.98 C 109.04 133.18 107.71 129.66 104.42 129.60 C 100.55 129.18 96.97 127.43 93.15 126.94 C 89.65 128.48 86.40 130.51 82.93 132.11 C 83.22 137.80 82.15 143.84 84.78 149.13 C 86.28 151.43 87.01 154.16 87.25 156.88 C 80.70 160.13 72.82 159.55 65.94 157.73 C 65.34 155.34 66.03 153.02 66.86 150.78 C 67.22 145.02 66.97 139.24 66.97 133.48 C 60.76 132.72 54.48 131.93 48.57 129.80 C 47.30 132.24 46.12 134.73 45.60 137.45 C 43.17 139.97 44.45 143.52 43.61 146.56 C 42.36 150.27 43.73 154.37 42.02 157.99 C 36.45 157.92 30.86 158.19 25.30 157.88 C 23.00 156.60 24.18 153.80 24.85 151.90 C 25.68 149.88 25.95 147.73 26.32 145.60 C 29.02 141.65 28.89 136.59 30.08 132.09 C 31.47 127.50 30.93 122.69 31.01 117.98 C 31.06 114.69 29.16 111.83 28.07 108.84 C 27.85 105.26 28.02 101.66 28.01 98.08 C 26.17 98.87 24.18 99.06 22.20 99.17 C 20.10 95.45 18.48 91.47 16.02 87.96 C 14.31 84.34 13.14 80.43 12.73 76.44 C 12.09 75.03 11.16 73.78 10.30 72.49 C 9.25 69.05 10.44 65.47 11.17 62.09 C 7.43 57.90 3.73 53.38 2.08 47.87 C 2.02 40.66 1.34 33.31 3.19 26.26 C 4.77 21.44 6.94 16.81 9.36 12.35 C 11.29 9.92 13.68 7.90 15.83 5.68 C 19.41 7.91 22.65 10.70 24.31 14.70 C 25.95 19.55 28.85 23.87 30.14 28.86 C 31.60 32.52 31.91 36.58 34.01 39.98 C 42.67 40.03 51.33 39.98 59.99 39.99 C 64.10 32.74 63.35 23.80 67.67 16.65 C 69.41 12.52 71.04 8.32 73.34 4.45 Z" />
<path fill="#212121" d=" M 79.39 1.79 C 85.66 5.65 89.32 12.13 92.47 18.55 C 96.92 26.13 96.96 35.51 94.84 43.82 C 93.57 49.18 89.62 53.14 86.23 57.24 C 84.78 58.76 85.08 61.00 84.95 62.91 C 84.95 69.39 85.18 76.04 83.30 82.31 C 80.48 88.39 74.15 91.66 68.43 94.53 C 68.09 91.89 67.87 89.23 67.64 86.57 C 67.32 90.63 66.11 94.52 64.12 98.07 C 60.20 97.13 55.81 97.10 52.53 94.46 C 49.03 91.99 46.83 88.06 43.07 85.90 C 41.60 84.89 39.15 83.74 40.21 81.54 C 43.59 78.67 47.89 76.66 49.75 72.35 C 46.65 70.85 43.55 68.84 39.98 68.85 C 36.68 68.74 33.62 70.17 30.56 71.23 C 30.92 73.82 31.50 76.58 33.90 78.07 C 35.52 79.69 39.34 81.61 37.55 84.28 C 32.48 88.72 29.44 95.14 23.41 98.50 C 19.72 91.75 16.07 84.94 13.65 77.61 C 17.69 77.69 22.84 79.40 25.87 75.82 C 28.48 73.05 30.66 69.22 29.93 65.30 C 28.64 62.37 26.09 60.11 23.47 58.36 C 19.62 56.82 15.72 59.16 12.49 61.08 C 8.52 56.99 4.70 52.40 3.29 46.75 C 1.58 36.17 4.45 25.48 8.94 15.94 C 10.57 12.54 13.47 10.04 16.06 7.39 C 18.62 9.32 21.27 11.35 22.58 14.38 C 25.42 20.40 28.26 26.47 30.03 32.90 C 30.92 35.58 31.37 38.58 33.30 40.76 C 42.86 41.48 52.49 40.74 62.08 41.04 C 64.07 32.49 66.60 24.08 69.94 15.96 C 71.63 10.39 75.61 6.04 79.39 1.79 Z" />
<path fill="#D7CCC8" d=" M 75.19 20.21 C 76.35 16.36 78.38 12.87 80.61 9.56 C 84.92 16.41 87.17 24.28 88.81 32.13 C 90.22 39.28 87.08 46.04 84.42 52.46 C 80.12 47.30 74.67 42.95 68.00 41.43 C 70.50 34.39 73.01 27.35 75.19 20.21 Z" />
<path fill="#D7CCC8" d=" M 15.66 14.84 C 17.67 19.59 19.18 24.53 20.55 29.49 C 21.83 34.12 24.45 38.19 27.18 42.09 C 22.28 45.31 17.55 48.80 13.33 52.88 C 11.04 47.85 7.31 42.93 8.01 37.09 C 9.05 29.25 12.65 22.07 15.66 14.84 Z" />
<path fill="#000000" d=" M 65.52 57.37 C 72.25 55.10 80.60 60.66 80.16 68.02 C 80.87 72.71 77.07 76.28 73.49 78.58 C 68.19 80.40 61.18 78.35 59.16 72.77 C 58.74 68.90 58.03 64.13 61.14 61.15 C 62.44 59.72 63.85 58.35 65.52 57.37 Z" />
<path fill="#ffffff" d=" M 66.58 57.86 C 71.24 57.69 75.78 59.81 78.05 63.99 C 79.58 66.22 78.86 69.04 79.00 71.56 C 76.80 73.66 74.66 75.80 72.57 78.00 C 70.52 77.96 68.44 78.20 66.42 77.79 C 63.78 76.75 62.02 74.45 60.00 72.58 C 60.00 69.87 60.00 67.15 60.00 64.43 C 62.24 62.29 64.43 60.10 66.58 57.86 Z" />
<path fill="#ffffff" d=" M 12.31 63.22 C 15.25 60.93 18.47 58.40 22.44 58.88 C 24.57 61.15 26.89 63.23 28.97 65.54 C 29.61 70.47 25.83 73.96 22.56 77.00 C 19.75 76.98 16.70 77.47 14.27 75.70 C 13.08 74.43 12.22 72.90 11.23 71.49 C 10.35 68.72 11.44 65.85 12.31 63.22 Z" />
<path fill="#000000" d=" M 63.01 71.99 C 59.70 67.34 64.48 60.49 69.84 60.96 C 72.85 61.82 74.82 64.38 77.00 66.44 C 77.00 68.14 77.00 69.84 77.01 71.54 C 75.47 73.02 73.96 74.52 72.48 76.05 C 68.93 76.23 64.66 75.63 63.01 71.99 Z" />
<path fill="#79441d" d=" M 62.96 68.87 C 63.08 65.10 66.66 63.29 69.42 61.51 C 69.84 62.12 70.67 63.34 71.08 63.95 C 70.71 63.98 69.97 64.03 69.60 64.05 C 68.48 65.96 65.26 69.01 67.92 70.95 C 70.69 73.08 72.92 69.62 75.11 68.30 L 75.93 68.60 L 76.78 68.92 C 74.92 71.08 73.52 73.96 70.80 75.16 C 66.95 75.54 64.19 72.12 62.96 68.87 Z" />
<path fill="#000000" d=" M 16.49 62.99 C 18.59 63.00 20.70 63.01 22.81 63.05 C 24.07 64.62 25.18 66.31 26.27 68.00 C 25.59 69.73 25.14 71.56 24.27 73.21 C 22.17 75.30 19.03 75.03 16.30 75.08 C 14.08 72.80 12.69 69.88 12.83 66.66 C 14.06 65.45 15.28 64.23 16.49 62.99 Z" />
<path fill="#79441d" d=" M 13.08 67.94 C 15.30 66.05 17.56 63.71 20.77 64.19 L 20.34 64.93 L 20.08 65.38 C 18.69 66.12 17.27 66.81 15.86 67.52 C 16.17 68.72 16.48 69.91 16.80 71.11 C 17.84 71.50 18.88 71.89 19.93 72.27 C 20.85 71.18 21.77 70.09 22.71 69.01 C 22.96 68.72 23.46 68.15 23.72 67.86 C 23.86 69.25 24.00 70.64 24.15 72.03 C 21.96 72.78 19.80 74.54 17.38 73.91 C 15.43 72.36 14.43 69.97 13.08 67.94 Z" />
<path fill="#ffffff" d=" M 69.60 64.05 C 69.97 64.03 70.71 63.98 71.08 63.95 C 73.74 63.59 74.69 66.86 75.93 68.60 L 75.11 68.30 C 73.30 66.85 71.52 65.35 69.60 64.05 Z" />
<path fill="#ffffff" d=" M 20.34 64.93 C 21.84 64.78 23.60 66.42 23.72 67.86 C 23.46 68.15 22.96 68.72 22.71 69.01 C 21.82 67.81 20.94 66.60 20.08 65.38 L 20.34 64.93 Z" />
<path fill="#000000" d=" M 67.92 70.95 C 65.26 69.01 68.48 65.96 69.60 64.05 C 71.52 65.35 73.30 66.85 75.11 68.30 C 72.92 69.62 70.69 73.08 67.92 70.95 Z" />
<path fill="#000000" d=" M 15.86 67.52 C 17.27 66.81 18.69 66.12 20.08 65.38 C 20.94 66.60 21.82 67.81 22.71 69.01 C 21.77 70.09 20.85 71.18 19.93 72.27 C 18.88 71.89 17.84 71.50 16.80 71.11 C 16.48 69.91 16.17 68.72 15.86 67.52 Z" />
<path fill="#212121" d=" M 86.05 71.22 C 94.98 77.74 106.30 79.07 117.01 79.82 C 121.35 80.08 126.11 79.46 129.94 82.00 C 135.86 84.86 138.84 91.67 139.06 97.98 C 139.30 104.02 140.26 109.99 141.11 115.96 C 141.34 119.91 145.92 121.36 147.04 124.94 C 150.26 134.03 151.78 143.66 152.92 153.21 C 152.83 155.06 153.90 157.81 151.64 158.71 C 147.10 159.87 142.40 158.88 137.88 158.14 C 138.92 151.85 139.40 145.44 138.85 139.08 C 138.56 137.07 138.22 134.86 136.81 133.30 C 133.22 131.70 129.07 131.53 125.75 129.29 C 121.19 126.27 117.08 122.34 114.29 117.61 C 112.65 114.92 112.95 111.75 113.63 108.82 C 108.02 115.72 99.99 119.72 93.09 125.08 C 90.04 127.22 86.61 128.73 83.27 130.35 C 84.20 124.77 84.28 119.08 83.53 113.48 C 82.96 122.67 81.73 131.83 81.95 141.04 C 81.92 146.41 84.31 151.30 86.31 156.15 C 80.12 158.45 73.11 159.09 66.98 156.24 C 68.27 148.96 68.41 141.48 67.69 134.14 C 66.36 128.46 64.35 122.92 62.03 117.56 C 62.75 122.74 64.45 127.69 65.84 132.70 C 64.52 132.19 63.15 131.78 61.92 131.07 C 57.87 125.48 56.44 118.37 52.08 112.96 C 49.99 109.79 45.50 110.93 42.31 111.20 C 39.63 113.71 40.19 117.81 39.66 121.13 C 36.21 118.37 32.10 115.84 30.47 111.51 C 28.29 106.95 29.09 101.77 28.99 96.89 C 36.30 96.93 43.56 98.34 50.88 97.78 C 54.92 97.43 58.91 98.41 62.95 98.49 C 65.50 97.88 67.57 96.06 69.96 95.02 C 74.33 92.97 78.68 90.59 81.82 86.82 C 85.85 82.71 85.17 76.48 86.05 71.22 Z" />
<path fill="#212121" d=" M 127.80 79.56 C 129.11 78.25 130.43 76.94 131.75 75.64 C 132.67 78.16 133.63 80.66 134.54 83.18 C 132.29 81.98 130.05 80.76 127.80 79.56 Z" />
<path fill="#212121" d=" M 29.80 95.80 C 32.00 91.59 34.97 87.11 40.03 86.23 C 45.81 87.23 48.23 93.50 52.40 96.97 C 44.83 97.39 37.34 96.04 29.80 95.80 Z" />
<path fill="#ffffff" d=" M 43.06 112.01 C 45.29 112.00 47.51 112.00 49.74 112.00 C 51.21 114.87 54.00 116.92 54.88 120.11 C 56.03 124.10 58.87 127.28 60.13 131.22 C 56.16 130.79 52.36 129.52 48.47 128.66 C 45.65 127.07 43.26 124.90 41.00 122.61 C 40.82 118.93 40.64 115.06 43.06 112.01 Z" />
<path fill="#212121" d=" M 94.53 125.68 C 99.85 121.31 106.20 118.44 111.49 114.01 C 113.32 119.82 117.82 123.94 121.51 128.53 C 122.61 134.02 121.41 139.76 122.80 145.25 C 123.35 148.69 125.10 153.19 121.68 155.74 C 118.55 156.34 115.31 156.29 112.16 155.85 C 110.81 155.71 109.43 154.55 109.58 153.09 C 109.78 146.47 110.57 139.80 109.78 133.19 C 109.46 131.81 109.09 130.01 107.59 129.46 C 103.34 127.87 98.80 127.21 94.53 125.68 Z" />
<path fill="#212121" d=" M 32.02 116.87 C 37.35 120.64 41.88 125.35 46.98 129.39 C 42.79 138.01 42.16 147.59 41.16 156.96 C 35.71 157.18 30.23 157.13 24.81 156.36 C 27.18 147.51 30.65 138.89 31.71 129.73 C 32.19 125.46 32.04 121.15 32.02 116.87 Z" />
</svg>
